<svg xmlns="http://www.w3.org/2000/svg" width="256" height="256" viewBox="0 0 100 100"><rect width="100" height="100" rx="20" fill="#7d6ee7"></rect><path d="M30.07 86.33L43.84 22.11L42.68 22.11Q34.04 22.11 29.24 26.43Q24.44 30.75 24.44 41.71L24.44 41.71Q24.44 45.30 25.12 46.70Q25.80 48.11 25.80 48.30L25.80 48.30Q20.56 48.30 17.99 46.12Q15.42 43.94 15.42 38.89L15.42 38.89Q15.42 32.01 18.81 26.33Q22.21 20.66 29.63 17.17Q37.05 13.67 48.50 13.67L48.50 13.67Q54.90 13.67 62.27 14.84L62.27 14.84Q68.48 15.90 73.33 15.90L73.33 15.90Q79.54 15.90 84.58 13.87L84.58 13.87Q84.39 20.17 81.38 23.18Q78.37 26.19 72.46 26.19L72.46 26.19Q69.35 26.19 66.25 25.70Q63.14 25.22 57.42 24.05L57.42 24.05L44.03 86.33L30.07 86.33Z" fill="#fff"></path></svg>